# xmcd
#
# Track frame offsets:
#	150
#	38126
#	67135
#	97316
#	114476
#	158212
#	222159
#
# Disc length: 3830 seconds
#
# Revision: 0
# Processed by: cddbd v1.5.2PL0 Copyright (c) Steve Scherf et al.
# Submitted via: audiograbber 1.83.01
#
DISCID=650ef407
DTITLE=Grateful Dead - 94-07-21 Deer Creek Music Centre, Noblesville IN
DYEAR=1900
DGENRE=
TTITLE0=Men Smart, Women Smarter
TTITLE1=If The Shoe Fits
TTITLE2=Long Way To Go home
TTITLE3=Help On The Way
TTITLE4=Slipknot!
TTITLE5=Franklin's Tower
TTITLE6=Drums
EXTD=
EXTT0=
EXTT1=
EXTT2=
EXTT3=
EXTT4=
EXTT5=
EXTT6=
PLAYORDER=
